<svg width="30" height="30" viewBox="0 0 30 30" fill="none" xmlns="http://www.w3.org/2000/svg">
<g clip-path="url(#clip0_2132_13653)">
<path d="M24.375 0H11.25C10.2554 0 9.30161 0.395088 8.59835 1.09835C7.89509 1.80161 7.5 2.75544 7.5 3.75C6.50544 3.75 5.55161 4.14509 4.84835 4.84835C4.14509 5.55161 3.75 6.50544 3.75 7.5V26.25C3.75 27.2446 4.14509 28.1984 4.84835 28.9016C5.55161 29.6049 6.50544 30 7.5 30H20.625C21.6196 30 22.5734 29.6049 23.2766 28.9016C23.9799 28.1984 24.375 27.2446 24.375 26.25C25.3696 26.25 26.3234 25.8549 27.0266 25.1516C27.7299 24.4484 28.125 23.4946 28.125 22.5V3.75C28.125 2.75544 27.7299 1.80161 27.0266 1.09835C26.3234 0.395088 25.3696 0 24.375 0V0ZM24.375 24.375V7.5C24.375 6.50544 23.9799 5.55161 23.2766 4.84835C22.5734 4.14509 21.6196 3.75 20.625 3.75H9.375C9.375 3.25272 9.57254 2.77581 9.92418 2.42417C10.2758 2.07254 10.7527 1.875 11.25 1.875H24.375C24.8723 1.875 25.3492 2.07254 25.7008 2.42417C26.0525 2.77581 26.25 3.25272 26.25 3.75V22.5C26.25 22.9973 26.0525 23.4742 25.7008 23.8258C25.3492 24.1775 24.8723 24.375 24.375 24.375ZM5.625 7.5C5.625 7.00272 5.82254 6.52581 6.17417 6.17417C6.52581 5.82254 7.00272 5.625 7.5 5.625H20.625C21.1223 5.625 21.5992 5.82254 21.9508 6.17417C22.3025 6.52581 22.5 7.00272 22.5 7.5V26.25C22.5 26.7473 22.3025 27.2242 21.9508 27.5758C21.5992 27.9275 21.1223 28.125 20.625 28.125H7.5C7.00272 28.125 6.52581 27.9275 6.17417 27.5758C5.82254 27.2242 5.625 26.7473 5.625 26.25V7.5Z" fill="#8FB5BA"/>
</g>
<defs>
<clipPath id="clip0_2132_13653">
<rect width="30" height="30" fill="white"/>
</clipPath>
</defs>
</svg>
